# xmcd
# Track frame offsets:
# 150
# 15559
# 26903
# 45044
# 59221
#
# Disc length: 970 seconds
# Revision: 0
# Processed by: cddbd v1.5.2PL0 Copyright (c) Steve Scherf et al.
# Submitted via: VisiTrax 2.10.3.257 - For more info visit www.synapsa.com
#
DISCID=3903c805
DTITLE=Various Artist - Universal Music Country Sampler
DYEAR=2005
DGENRE=
TTITLE0=Hughes, Jedd - All mixed up
TTITLE1=Nelson, Willie - Midnight Rider
TTITLE2=Clark, Terri - I Think the World needs a Drink
TTITLE3=Roberts, Julie - Wake up Older
TTITLE4=Williams, Holly - Sometimes
EXTD=
EXTT0=
EXTT1=
EXTT2=
EXTT3=
EXTT4=
PLAYORDER=
